<svg width="558" height="579" viewBox="0 0 558 579" fill="none" xmlns="http://www.w3.org/2000/svg">
<path d="M106.709 60.0009C108.707 57.649 112.015 55.4669 114.398 53.5364C128.492 42.1214 144.87 35.5603 160.881 27.5195C164.417 25.744 169.166 24.5307 172.264 22.4039C175.432 20.229 177.893 19.9308 181.484 18.7482C196.754 11.8836 215.017 11.7888 230.719 7.23326C247.786 2.28209 261.471 1.61825 279.182 1.61825C286.739 1.61863 295.495 -0.152006 303.501 0.0105444C315.826 0.261001 327.722 1.09385 339.967 2.46965C357.177 3.36349 372.42 4.5525 389.384 7.96455C399.798 10.0588 409.141 10.8033 419.847 13.902C423.58 14.6504 431.133 16.6078 434.688 18.0177C437.156 18.6308 442.325 19.6409 444.5 20.617C451.997 23.9794 460.028 27.2622 467.448 30.6815C470.912 32.1077 475.684 34.2072 479.038 35.8994C485.693 39.5214 493.849 49.4885 495.922 56.9412C498.476 66.3237 499.052 73.9219 494.554 82.5492C490.821 89.7166 480.652 95.6571 473.857 90.3994C465.368 83.4093 456.079 80.594 446.411 76.0601C440.263 73.1792 434.692 68.9173 427.95 66.3081C406.442 57.9874 383.794 54.229 361.331 49.717C348.627 47.1654 334.282 46.7611 321.453 44.5745C308.424 43.6177 294.4 46.6543 281.413 47.8425C272.141 48.3173 264.177 49.8094 255.472 53.001C252.646 53.8304 248.653 53.7046 245.943 54.606C234.618 58.3723 224.324 63.1234 212.61 65.5242C210.285 66.0009 199.788 70.6019 196.94 71.7724C188.703 75.1579 180.001 79.829 171.696 83.2915C162.744 87.8357 153.958 94.096 145.286 99.0843C136.243 104.286 131.526 106.761 123.727 113.687C115.237 120.701 106.622 128.168 99.172 136.36C92.1213 144.113 87.1474 154.581 81.2352 163.473C72.9008 176.007 62.4679 189.324 57.4076 203.68C55.1007 210.226 53.9945 218.35 52.2666 225.12C51.6121 228.579 51.221 234.166 50.6961 238.077C50.4024 242.244 47.4326 249.206 47.3765 253.025C47.1901 265.681 44.2487 285.895 47.3265 297.929C49.9298 308.107 51.7148 313.567 52.5956 324.843C53.3866 334.967 56.8937 347.964 59.7828 357.706C61.2127 361.824 61.1623 362.84 63.4768 367.008C67.8985 374.969 70.1997 384.309 76.0688 391.906C77.1402 393.982 80.5234 397.358 81.375 399.374C84.0996 405.831 88.0547 410.43 91.6692 416.084C96.3239 423.366 100.899 429.349 106.636 435.832C109.561 439.136 112.441 441.311 114.94 444.975C118.371 448.601 124.052 455.054 127.588 458.161C129.37 459.696 132.474 462.03 133.967 463.405C135.468 464.387 138.959 467.691 140.23 469.134C156.319 482.169 173.921 490.436 191.392 501.076C193.413 502.065 196.073 503.251 197.838 504.539C200.537 506.381 215.766 513.459 219.369 514.865C225.524 516.971 228.407 519.832 233.757 522.674C237.299 524.496 242.778 524.534 246.237 525.781C254.937 528.914 262.852 528.812 271.678 530.203C299.906 534.647 330.076 534.772 358.068 528.668C361.896 527.835 365.985 525.959 369.794 524.894C378.666 524.004 383.46 519.896 390.65 515.675C401.367 509.374 410.99 503.338 420.594 495.366C426.453 490.505 432.896 485.95 438.755 480.956C442.249 477.974 449.78 469.619 452.891 467.979C456.598 464.894 460.187 460.715 462.847 456.744C463.768 454.516 474.895 440.747 477.128 437.151C480.853 432.218 483.222 425.09 486.436 420.055C491.965 411.393 493.94 403.47 496.562 393.694C497.392 389.784 500.898 383.028 501.141 379.284C501.819 368.739 504.563 358.789 506.587 348.722C507.849 342.451 505.999 332.338 506.666 325.616C507.151 320.694 506.644 314.412 506.553 309.475C506.393 307.69 503.752 304.25 503.532 302.791C502.247 294.39 499.003 287.297 496.479 279.446C494.36 270.023 490.752 260.679 487.952 251.601C484.075 239.029 478.083 230.683 469.817 220.515C467.816 218.057 464.659 215.614 462.703 213.096C457.09 205.872 450.549 199.648 444.516 192.814C442.772 190.844 441.738 188.067 440.248 185.927C437.303 181.692 434.184 177.251 430.584 173.545C425.987 169.165 418.634 162.957 412.483 161C408.925 159.867 405.715 157.443 402.448 155.498C398.176 152.91 393.795 150.502 389.319 148.281C381.182 144.326 378.848 144.874 370.127 143.316C367.433 142.834 363.294 141.356 360.361 140.953C348.404 139.559 335.378 137.398 323.284 138.107C313.339 138.691 302.739 140.11 292.734 140.773C290.092 141.088 285.102 144.289 282.738 144.48C266.125 145.822 250.664 150.616 235.035 156.163C232.246 157.152 231.036 159.272 229.234 160.035C225.006 161.828 221.684 162.637 218.108 165.953C210.356 171.5 203.894 177.835 197.002 184.334C194.561 186.636 190.958 188.603 188.599 191.132C183.989 197.163 180.088 204.059 176.142 210.538C175.168 212.148 172.655 214.394 171.36 215.974C169.377 218.394 167.048 221.188 165.572 223.951C163.163 228.461 160.478 232.914 158.29 237.512C157.225 239.75 157.063 243.47 155.839 245.794C155.33 246.801 153.503 248.565 152.712 249.566C150.411 252.476 149.306 255.681 147.918 258.959C143.285 269.898 143.219 283.103 143.943 294.856C144.308 300.779 145.513 318.409 147.092 323.733C149.367 331.406 160.876 348.184 165.993 355.356C167.404 357.334 170.265 359.619 171.848 362.112C175.92 368.531 180.069 375.556 183.452 382.357C184.861 385.188 186.436 389.359 187.9 392.523C189.352 393.436 190.105 393.846 191.357 395.032C195.136 397.282 201.941 404.266 206.207 407.467C211.087 410.771 215.968 414.102 220.875 417.372C222.937 418.744 226.227 420.297 228.069 421.669C230.632 422.673 233.597 424.098 236.15 425.249C238.033 426.102 241.569 427.314 243.196 428.167C249.153 430.732 249.539 431.297 256.202 432.847C263.026 433.729 270.538 434.828 277.386 435.237C279.91 435.389 286.422 434.313 289.646 434.074C297.743 433.472 306.381 433.487 314.355 432.244C317.565 431.74 321.321 429.614 324.44 428.497C327.123 427.538 330.477 426.75 333.009 425.674C348.991 418.895 362.873 409.68 375.941 398.29C378.132 396.017 382.964 393.474 384.916 391.227C389.85 385.551 399.768 378.083 403.357 371.937C408.841 362.548 414.283 351.726 417.255 341.341C419.009 335.199 418.888 326.855 420.344 320.508C421.416 315.598 423.645 310.979 423.864 305.898C424.331 294.974 421.625 283.573 419.214 272.959C417.611 265.904 408.606 251.062 403.766 245.611C400.401 241.826 391.184 234.191 387.011 230.503C385.469 229.139 379.015 225.769 377.044 224.32C374.626 222.538 371.844 220.653 369.456 219.051C362.324 214.265 357.189 216.058 350.594 214.665C344.788 213.439 337.022 211.002 331.027 209.511C319.714 206.698 315.553 208.412 304.467 210.785C300.749 211.581 296.967 212.193 293.118 213.135C282.37 215.767 274.018 222.49 265.746 229.475C264.182 230.796 261.352 234.163 259.695 235.81C256.572 238.913 252.154 243.08 249.543 246.512C247.065 249.77 245.089 253.571 242.397 257.053C239.383 260.952 235.938 265.067 233.215 269.114C231.475 271.698 231.223 275.248 230.535 278.094C227.901 288.983 229.648 296.793 232.338 307.44C234.304 315.23 239.529 321.16 244.85 326.863C246.529 328.662 249.722 332.732 251.561 334.198C257.431 338.882 263.779 343.8 270.337 347.441C274.16 349.563 278.278 349.809 282.153 350.658C293.619 353.166 301.367 353.841 312.896 350.745C315.735 349.984 319.157 349.536 322.371 348.566C326.926 347.191 327.502 346.354 331.167 344.459C338.891 340.477 342.563 339.397 346.74 331.038C351.576 321.755 352.766 312.385 349.582 302.313C347.46 295.595 338.845 292.17 332.49 294.879C321.526 299.547 325.058 311.449 321.04 320.489C310.982 327.522 296.201 324.623 285.624 319.955C278.658 316.878 270.186 300.188 273.473 292.723C277.67 283.19 274.635 271.22 279.954 262.248C287.32 249.456 299.206 243.104 313.207 239.355C317.925 237.724 332.039 236.457 337.057 238.432C339.361 238.787 344.276 239.632 346.402 240.497C352.436 242.154 355.006 245.007 359.781 248.079C371.242 255.45 378.272 264.805 385.097 276.203C394.33 291.621 393.473 307.637 388.448 324.275C385.348 334.528 380.447 342.189 375.327 351.529C370.794 361.048 367.634 363.552 361.115 371.422C359.068 375.465 356.897 377.424 353.039 379.622C348.4 382.456 343.765 385.396 338.69 387.313C319.468 394.588 300.509 399.582 279.947 394.471C276.578 393.633 271.597 393.762 268.359 392.743C258.93 389.769 249.037 385.957 241.275 379.671C238.546 378.417 233.403 373.506 231.564 371.123C231.058 370.842 229.876 368.781 228.568 367.906C226.666 366.629 224.071 365.265 222.361 363.814C217.681 359.831 213.034 353.216 210.22 347.774C209.387 346.164 208.885 342.803 208.117 341.25C207.313 339.624 205.925 337.658 204.929 336.07C202.687 332.489 201.587 328.901 199.983 325.055C193.918 310.088 191.965 291.594 193.412 275.555C193.979 269.269 195.601 259.451 196.824 253.434C199.15 241.998 206.991 231.008 213.274 221.373C214.244 219.885 217.337 218.178 218.339 216.431C225.714 205.31 231.297 196.419 243.311 189.496C252.418 184.247 262.409 179.362 272.423 175.805C275.063 174.867 279.758 174.033 282.767 173.17C285.803 172.299 291.235 170.695 294.012 170.274C304.535 168.678 315.465 168.146 326.092 168.098C333.687 168.064 348.335 168.521 355.472 170.371C358.098 170.698 359.648 171.807 362.104 172.604C370.681 175.385 382.217 179.846 389.933 184.529C393.719 185.802 401.902 192.18 404.695 195.023C406.802 196.654 408.663 198.086 410.641 199.87C413.874 202.215 417.963 206.652 420.973 209.597C424.296 212.851 430.209 217.525 433.123 220.88C442.996 230.043 456.628 256.034 459.535 269.28C465.591 296.887 469.112 344.561 455.29 369.656C454.9 371.108 451.076 377.208 450.064 378.151C448.851 379.762 447.908 381.046 446.805 382.748C443.871 389.371 440.381 392.523 436.818 398.18C428.966 410.635 420.579 420.975 407.753 428.569C390.297 438.898 374.849 453.175 355.566 460.113C352.201 461.321 349.412 462.989 345.716 463.474C344.886 463.807 342.086 465 341.385 465.144C331.815 470.085 318.024 471.821 307.469 473.924C302.576 474.901 297.523 476.561 292.549 477.023C262.555 479.808 228.287 476.747 201.701 461.643C198.551 459.745 193.83 458.472 190.814 456.649C172.512 445.585 152.476 430.175 142.832 410.62C138.82 402.489 135.889 398.896 129.754 392.436C128.712 391.341 124.741 383.028 123.723 381.179C118.588 371.846 113.304 362.707 110.858 352.227C109.483 347.024 107.13 344.122 106.167 338.025C103.067 318.394 100.107 298.536 101.787 278.609C102.401 271.144 105.698 261.789 106.17 254.401C106.903 242.941 106.598 233.278 111.82 222.468C112.343 219.067 115.245 214.898 116.596 211.761C117.282 210.165 117.811 207.483 118.179 205.728C118.683 201.41 123.791 193.911 125.955 190.091C133.488 176.803 143.158 166.869 155.17 157.631C163.718 151.056 167.416 147.64 177.739 143.6C182.875 132.5 226.223 115.829 238.002 109.334C243.536 106.281 266.099 99.1786 272.644 98.6542C278.645 96.9825 283.432 94.8269 289.97 94.7538C294.333 93.4674 301.657 93.0017 306.461 92.7797C312.866 92.4834 320.771 90.8522 327.07 91.1648C337.871 91.9423 348.862 93.3117 359.58 94.8921C362.385 95.3059 366.766 97.2538 368.994 97.4217C392.757 99.2124 412.036 107.791 432.149 120.014C434.415 121.392 438.944 122.523 441.431 123.802C446.945 126.36 456.173 130.693 460.585 134.652C462.063 135.952 470.222 141.859 470.681 142.613C473.622 145.066 477.723 148.078 480.065 150.893C483.533 153.335 484.882 157.198 487.342 159.189C499.735 169.19 509.323 180.742 517.972 194.054C520.712 198.447 524.941 202.872 527.446 207.349C535.898 222.455 544.175 237.758 548.098 254.753C549.299 259.963 551.471 264.021 552.293 269.78C554.017 281.886 555.215 293.909 555.916 306.118C556.579 314.51 558.035 321.584 557.966 330.637C557.766 352.166 555.624 374.472 550.743 395.452C550.08 398.29 547.9 402.004 546.983 404.86C545.103 410.726 542.557 415.898 539.82 421.381C538.221 424.583 537.978 429.842 536.212 433.153C531.854 441.535 525.457 449.056 520.795 457.381C519.65 459.423 517.471 461.446 516.372 463.591C513.333 468.968 510.214 475.447 506.867 480.581C503.517 485.37 499.17 489.645 495.569 494.229C488.376 503.391 481.444 513.682 471.181 519.711C466.565 522.42 463.609 526.694 459.85 529.422C456.007 532.211 449.196 536.887 445.118 538.724C443.405 539.933 441.707 541.157 440.021 542.4C429.352 552.047 401.978 562.357 388.072 565.062C382.77 565.99 378.105 567.389 373.11 568.347C368.994 569.435 363.972 569.878 360.164 571.094C328.275 581.279 293.067 579.423 260.245 575.687C254.758 575.061 248.603 574.883 243.206 573.428C226.989 569.056 212.247 561.144 196.847 554.638C193.841 553.449 189.849 553.612 186.914 552.323C174.746 546.981 163.721 540.823 152.182 534.193C117.667 514.353 89.9637 484.385 63.8111 454.861C61.2984 452.023 59.3526 448.469 56.982 445.574C40.5899 425.571 28.5467 402.273 17.9695 378.796C15.6395 373.627 15.8725 367.807 14.2217 362.832C6.66686 340.064 2.22092 316.602 0.773552 292.663C0.397214 287.172 1.05514 280.92 0.711397 275.506C-0.597258 254.886 -0.522219 235.121 4.61311 214.998C6.70438 206.804 6.5308 196.614 11.2356 188.437C11.5187 187.101 13.9272 183.34 14.6223 181.797C15.4246 180.016 16.026 178.502 16.7154 176.646C17.268 174.702 20.1415 171.159 21.1564 168.946C24.7712 161.063 28.3171 151.761 32.2446 144.161C34.982 138.865 41.2683 131.238 44.6736 126.008C46.2998 123.51 50.4513 116.938 52.5956 115.28C57.5808 107.616 64.4622 100.182 70.7379 93.5758C72.6306 91.5839 74.0355 89.6495 76.0127 87.7421C78.1623 84.0732 85.5011 80.15 88.5997 77.3351C92.1634 74.0981 97.1539 67.2918 101.183 64.8092C103.474 63.203 104.688 61.9651 106.709 60.0009Z" fill="#4b5a3e"/>
</svg>
